<svg id="Layer_1" data-name="Layer 1" xmlns="http://www.w3.org/2000/svg" xmlns:xlink="http://www.w3.org/1999/xlink" viewBox="0 0 202.15 262.98"><defs><style>.cls-1{fill:url(#linear-gradient);}.cls-2{fill:url(#linear-gradient-2);}.cls-3{fill:#00010c;}.cls-4{fill:url(#linear-gradient-3);}.cls-5{fill:#e9e4ee;}.cls-6{fill:url(#linear-gradient-4);}.cls-7{fill:url(#linear-gradient-5);}.cls-8{fill:url(#linear-gradient-6);}.cls-9{fill:#0d0c11;}.cls-10{fill:url(#linear-gradient-7);}.cls-11{fill:url(#linear-gradient-8);}.cls-12{fill:url(#linear-gradient-9);}.cls-13{fill:url(#linear-gradient-10);}.cls-14{fill:#fcfcff;}.cls-15{fill:#49536e;}.cls-16{fill:url(#linear-gradient-11);}.cls-17{fill:url(#linear-gradient-12);}.cls-18{fill:#15181e;}.cls-19{fill:#fff;}.cls-20{fill:url(#linear-gradient-13);}.cls-21{fill:url(#linear-gradient-14);}.cls-22{fill:url(#linear-gradient-15);}.cls-23{fill:url(#linear-gradient-16);}.cls-24{fill:url(#linear-gradient-17);}.cls-25{fill:url(#linear-gradient-18);}.cls-26{fill:url(#linear-gradient-19);}.cls-27{fill:url(#linear-gradient-20);}.cls-28{fill:#cbc9da;}.cls-29{fill:url(#linear-gradient-21);}.cls-30{fill:#1b2326;}.cls-31{fill:#dbd8e3;}.cls-32{fill:url(#linear-gradient-22);}.cls-33{fill:url(#linear-gradient-23);}.cls-34{fill:url(#linear-gradient-24);}.cls-35{fill:#17171b;}.cls-36{fill:url(#linear-gradient-25);}.cls-37{fill:url(#linear-gradient-26);}.cls-38{fill:url(#linear-gradient-27);}.cls-39{fill:url(#linear-gradient-28);}.cls-40{fill:url(#linear-gradient-29);}.cls-41{fill:url(#linear-gradient-30);}.cls-42{fill:url(#linear-gradient-31);}.cls-43{fill:url(#linear-gradient-32);}.cls-44{fill:url(#linear-gradient-33);}.cls-45{fill:url(#linear-gradient-34);}.cls-46{fill:url(#linear-gradient-35);}.cls-47{fill:url(#linear-gradient-36);}.cls-48{fill:url(#linear-gradient-37);}.cls-49{fill:url(#linear-gradient-38);}.cls-50{fill:url(#linear-gradient-39);}.cls-51{fill:url(#linear-gradient-40);}.cls-52{fill:url(#linear-gradient-41);}.cls-53{fill:#010003;}.cls-54{fill:url(#linear-gradient-42);}.cls-55{fill:url(#linear-gradient-43);}.cls-56{fill:url(#linear-gradient-44);}.cls-57{fill:url(#linear-gradient-45);}.cls-58{fill:none;stroke:#1b2326;stroke-miterlimit:10;}.cls-59{fill:#191e22;}.cls-60{fill:#85d4fd;}.cls-61{fill:url(#linear-gradient-46);}.cls-62{fill:url(#linear-gradient-47);}.cls-63{fill:url(#linear-gradient-48);}.cls-64{fill:url(#linear-gradient-49);}.cls-65{fill:#e4e0ea;}.cls-66{fill:url(#linear-gradient-50);}.cls-67{fill:url(#linear-gradient-51);}.cls-68{fill:url(#linear-gradient-52);}.cls-69{fill:#f1eef4;}.cls-70{fill:#f5f2f5;}.cls-71{fill:url(#linear-gradient-53);}.cls-72{fill:#535465;}.cls-73{fill:#171a1e;}.cls-74{fill:url(#linear-gradient-54);}.cls-75{fill:url(#linear-gradient-55);}.cls-76{fill:#2f3e46;}.cls-77{fill:#07080e;}.cls-78{fill:url(#linear-gradient-56);}.cls-79{fill:#060610;}.cls-80{fill:#0e1218;}.cls-81{fill:url(#linear-gradient-57);}.cls-82{fill:url(#linear-gradient-58);}.cls-83{fill:url(#linear-gradient-59);}.cls-84{fill:#0e1014;}.cls-85{fill:url(#linear-gradient-60);}.cls-86{fill:url(#linear-gradient-61);}.cls-87{fill:#f7f6f6;}.cls-88{fill:url(#linear-gradient-62);}.cls-89{fill:#e5e0e9;}.cls-90{fill:url(#linear-gradient-63);}.cls-91{fill:#e4dfe7;}.cls-92{fill:url(#linear-gradient-64);}.cls-93{fill:#0c0d16;}.cls-94{fill:url(#linear-gradient-65);}.cls-95{fill:url(#linear-gradient-66);}.cls-96{fill:url(#linear-gradient-67);}.cls-97{fill:url(#linear-gradient-68);}.cls-98{fill:url(#linear-gradient-69);}.cls-99{fill:url(#linear-gradient-70);}.cls-100{fill:url(#linear-gradient-71);}.cls-101{fill:url(#linear-gradient-72);}.cls-102{fill:url(#linear-gradient-73);}.cls-103{fill:url(#linear-gradient-74);}.cls-104{fill:url(#linear-gradient-75);}.cls-105{fill:url(#linear-gradient-76);}.cls-106{fill:url(#linear-gradient-77);}.cls-107{fill:url(#linear-gradient-78);}.cls-108{fill:url(#linear-gradient-79);}.cls-109{fill:url(#linear-gradient-80);}.cls-110{fill:url(#linear-gradient-81);}.cls-111{fill:url(#linear-gradient-82);}.cls-112{fill:url(#linear-gradient-83);}.cls-113{fill:url(#linear-gradient-84);}</style><linearGradient id="linear-gradient" x1="2052.67" y1="910.84" x2="2057.78" y2="906.38" gradientTransform="translate(3265.23 -521.57) rotate(90)" gradientUnits="userSpaceOnUse"><stop offset="0" stop-color="#0c0d16"/><stop offset="0.74" stop-color="#9998a6"/><stop offset="1" stop-color="#cbc9da"/></linearGradient><linearGradient id="linear-gradient-2" x1="2060.27" y1="907.57" x2="2058.17" y2="908.89" gradientTransform="translate(3265.23 -521.57) rotate(90)" gradientUnits="userSpaceOnUse"><stop offset="0" stop-color="#fff" stop-opacity="0"/><stop offset="1" stop-color="#f4f0f4"/></linearGradient><linearGradient id="linear-gradient-3" x1="2155.84" y1="945.57" x2="2168.36" y2="953.84" gradientTransform="matrix(0.15, 0.99, -0.99, 0.15, 2956.8, -712.08)" xlink:href="#linear-gradient"/><linearGradient id="linear-gradient-4" x1="2170.74" y1="964.1" x2="2170.48" y2="959.59" gradientTransform="matrix(0.15, 0.99, -0.99, 0.15, 2956.8, -712.08)" xlink:href="#linear-gradient"/><linearGradient id="linear-gradient-5" x1="2165.33" y1="955.31" x2="2162.39" y2="953.01" gradientTransform="matrix(0.15, 0.99, -0.99, 0.15, 2956.8, -712.08)" gradientUnits="userSpaceOnUse"><stop offset="0" stop-color="#b4b2bd"/><stop offset="1" stop-color="#dbd8e3" stop-opacity="0"/></linearGradient><linearGradient id="linear-gradient-6" x1="2160.74" y1="955.32" x2="2166.23" y2="956.47" gradientTransform="matrix(0.15, 0.99, -0.99, 0.15, 2956.8, -712.08)" xlink:href="#linear-gradient-2"/><linearGradient id="linear-gradient-7" x1="2079.29" y1="925.07" x2="2078.51" y2="917.18" xlink:href="#linear-gradient"/><linearGradient id="linear-gradient-8" x1="2081.5" y1="919.15" x2="2075.72" y2="928.72" xlink:href="#linear-gradient-2"/><linearGradient id="linear-gradient-9" x1="2062.33" y1="920.24" x2="2065.58" y2="920.79" gradientTransform="translate(927.99 -1954.01) rotate(90)" gradientUnits="userSpaceOnUse"><stop offset="0" stop-color="#649593"/><stop offset="1" stop-color="#646371"/></linearGradient><linearGradient id="linear-gradient-10" x1="2067.11" y1="924.16" x2="2070.79" y2="926.75" gradientTransform="translate(3265.23 -521.57) rotate(90)" gradientUnits="userSpaceOnUse"><stop offset="0" stop-color="#231f20"/><stop offset="1" stop-color="#478abb"/></linearGradient><linearGradient id="linear-gradient-11" x1="2191.12" y1="952.25" x2="2192.78" y2="955" gradientTransform="matrix(0.15, 0.99, -0.99, 0.15, 2956.8, -712.08)" xlink:href="#linear-gradient"/><linearGradient id="linear-gradient-12" x1="2184.05" y1="954.94" x2="2184.44" y2="957.3" gradientTransform="matrix(0.15, 0.99, -0.99, 0.15, 2956.8, -712.08)" xlink:href="#linear-gradient"/><linearGradient id="linear-gradient-13" x1="2165.15" y1="942.4" x2="2170.52" y2="945.79" gradientTransform="matrix(0.15, 0.99, -0.99, 0.15, 2956.8, -712.08)" xlink:href="#linear-gradient"/><linearGradient id="linear-gradient-14" x1="2083.38" y1="875.09" x2="2088.74" y2="878.47" gradientTransform="matrix(-0.04, 1, -1, -0.04, 3314.92, -475.5)" xlink:href="#linear-gradient"/><linearGradient id="linear-gradient-15" x1="2192.44" y1="941.69" x2="2196.59" y2="949.87" gradientTransform="matrix(0.15, 0.99, -0.99, 0.15, 2956.8, -712.08)" xlink:href="#linear-gradient"/><linearGradient id="linear-gradient-16" x1="2182.89" y1="947.79" x2="2186.63" y2="955.16" gradientTransform="matrix(0.15, 0.99, -0.99, 0.15, 2956.8, -712.08)" xlink:href="#linear-gradient"/><linearGradient id="linear-gradient-17" x1="2190" y1="941.51" x2="2193.51" y2="945.79" gradientTransform="matrix(0.15, 0.99, -0.99, 0.15, 2956.8, -712.08)" xlink:href="#linear-gradient"/><linearGradient id="linear-gradient-18" x1="2183.36" y1="947.08" x2="2184.25" y2="949.57" gradientTransform="matrix(0.15, 0.99, -0.99, 0.15, 2956.8, -712.08)" xlink:href="#linear-gradient"/><linearGradient id="linear-gradient-19" x1="2447.36" y1="1538" x2="2452.48" y2="1533.54" gradientTransform="matrix(1, 0, 0, 1, 0, 0)" xlink:href="#linear-gradient"/><linearGradient id="linear-gradient-20" x1="2454.96" y1="1534.73" x2="2452.87" y2="1536.05" gradientTransform="matrix(1, 0, 0, 1, 0, 0)" xlink:href="#linear-gradient-2"/><linearGradient id="linear-gradient-21" x1="2435.33" y1="1595.97" x2="2423.88" y2="1586.73" gradientTransform="matrix(1, 0, 0, 1, 0, 0)" xlink:href="#linear-gradient-2"/><linearGradient id="linear-gradient-22" x1="2406.82" y1="1594.63" x2="2407.48" y2="1581.41" gradientTransform="matrix(1, 0, 0, 1, 0, 0)" xlink:href="#linear-gradient-5"/><linearGradient id="linear-gradient-23" x1="2385.89" y1="1580.09" x2="2396.75" y2="1580.09" gradientTransform="matrix(1, 0, 0, 1, 0, 0)" xlink:href="#linear-gradient-2"/><linearGradient id="linear-gradient-24" x1="2408.02" y1="1571.43" x2="2429.71" y2="1571.43" gradientTransform="matrix(1, 0, 0, 1, 0, 0)" xlink:href="#linear-gradient-2"/><linearGradient id="linear-gradient-25" x1="2407.03" y1="1538.17" x2="2406.37" y2="1528.59" gradientTransform="matrix(1, 0, 0, 1, 0, 0)" xlink:href="#linear-gradient-5"/><linearGradient id="linear-gradient-26" x1="2405.3" y1="1529.95" x2="2405.3" y2="1504.29" gradientTransform="matrix(1, 0, 0, 1, 0, 0)" xlink:href="#linear-gradient-5"/><linearGradient id="linear-gradient-27" x1="2405.3" y1="1497.58" x2="2405.3" y2="1504.19" gradientTransform="matrix(1, 0, 0, 1, 0, 0)" xlink:href="#linear-gradient-5"/><linearGradient id="linear-gradient-28" x1="2392.42" y1="1497.51" x2="2400.95" y2="1495.03" gradientTransform="matrix(1, 0, 0, 1, 0, 0)" xlink:href="#linear-gradient-2"/><linearGradient id="linear-gradient-29" x1="2419.18" y1="1494.45" x2="2389.62" y2="1501.61" gradientTransform="matrix(1, 0, 0, 1, 0, 0)" xlink:href="#linear-gradient-2"/><linearGradient id="linear-gradient-30" x1="2382.07" y1="1495.24" x2="2371.5" y2="1519.02" gradientTransform="matrix(1, 0, 0, 1, 0, 0)" xlink:href="#linear-gradient-2"/><linearGradient id="linear-gradient-31" x1="2453.6" y1="1484.65" x2="2418.59" y2="1515.25" gradientTransform="matrix(1, 0, 0, 1, 0, 0)" xlink:href="#linear-gradient-2"/><linearGradient id="linear-gradient-32" x1="2368.21" y1="1503.84" x2="2386.92" y2="1523.88" gradientTransform="matrix(1, 0, 0, 1, 0, 0)" xlink:href="#linear-gradient-2"/><linearGradient id="linear-gradient-33" x1="2351.97" y1="1511.87" x2="2378.89" y2="1532.52" gradientTransform="matrix(1, 0, 0, 1, 0, 0)" xlink:href="#linear-gradient-10"/><linearGradient id="linear-gradient-34" x1="2415.48" y1="1510.05" x2="2442.78" y2="1524.13" gradientTransform="matrix(1, 0.07, -0.07, 1, 95.49, -126.82)" xlink:href="#linear-gradient-10"/><linearGradient id="linear-gradient-35" x1="2400.18" y1="1547.06" x2="2406.21" y2="1547.06" gradientTransform="matrix(1, 0, 0, 1, 0, 0)" xlink:href="#linear-gradient-2"/><linearGradient id="linear-gradient-36" x1="2406.38" y1="1465.56" x2="2390.36" y2="1481.24" gradientTransform="matrix(1, 0, 0, 1, 0, 0)" xlink:href="#linear-gradient-5"/><linearGradient id="linear-gradient-37" x1="2378.05" y1="1453.54" x2="2382.89" y2="1456.4" gradientTransform="matrix(1, 0, 0, 1, 0, 0)" xlink:href="#linear-gradient-5"/><linearGradient id="linear-gradient-38" x1="2371.43" y1="1447.86" x2="2389.35" y2="1458.34" gradientTransform="matrix(1, 0, 0, 1, 0, 0)" xlink:href="#linear-gradient-2"/><linearGradient id="linear-gradient-39" x1="2402.83" y1="1431.52" x2="2399.03" y2="1449.03" gradientTransform="matrix(1, 0, 0, 1, 0, 0)" xlink:href="#linear-gradient-2"/><linearGradient id="linear-gradient-40" x1="2410.15" y1="1454.1" x2="2410.39" y2="1443.04" gradientTransform="matrix(1, 0, 0, 1, 0, 0)" xlink:href="#linear-gradient-2"/><linearGradient id="linear-gradient-41" x1="2404.78" y1="1479.71" x2="2402.8" y2="1473.02" gradientTransform="matrix(1, 0, 0, 1, 0, 0)" xlink:href="#linear-gradient-2"/><linearGradient id="linear-gradient-42" x1="2431.55" y1="1468.46" x2="2427.92" y2="1468.29" gradientTransform="matrix(1, 0, 0, 1, 0, 0)" xlink:href="#linear-gradient-10"/><linearGradient id="linear-gradient-43" x1="2396.82" y1="1455.51" x2="2424.98" y2="1466.33" gradientUnits="userSpaceOnUse"><stop offset="0" stop-color="#231f20" stop-opacity="0"/><stop offset="1" stop-color="#f1f2f2"/></linearGradient><linearGradient id="linear-gradient-44" x1="2389.49" y1="1451.67" x2="2368.52" y2="1478.59" xlink:href="#linear-gradient-43"/><linearGradient id="linear-gradient-45" x1="2364.14" y1="1470.42" x2="2372.56" y2="1478.34" gradientTransform="matrix(1, 0, 0, 1, 0, 0)" xlink:href="#linear-gradient-10"/><linearGradient id="linear-gradient-46" x1="2404.42" y1="1564.23" x2="2407.14" y2="1564.23" gradientUnits="userSpaceOnUse"><stop offset="0.24" stop-color="#231f20"/><stop offset="1" stop-color="#478abb"/></linearGradient><linearGradient id="linear-gradient-47" x1="2420.78" y1="1563.67" x2="2424.76" y2="1563.67" xlink:href="#linear-gradient-46"/><linearGradient id="linear-gradient-48" x1="2399.31" y1="1537.85" x2="2402.86" y2="1541.07" xlink:href="#linear-gradient-46"/><linearGradient id="linear-gradient-49" x1="2420.65" y1="1539.16" x2="2424.28" y2="1539.16" xlink:href="#linear-gradient-46"/><linearGradient id="linear-gradient-50" x1="2457.73" y1="1648.93" x2="2449.37" y2="1652.45" gradientTransform="matrix(1, 0, 0, 1, 0, 0)" xlink:href="#linear-gradient-5"/><linearGradient id="linear-gradient-51" x1="2421.43" y1="1628.06" x2="2451.37" y2="1632.02" gradientUnits="userSpaceOnUse"><stop offset="0" stop-color="#fff"/><stop offset="1" stop-color="#bebfd2"/></linearGradient><linearGradient id="linear-gradient-52" x1="2394.73" y1="1617.23" x2="2442.51" y2="1673.37" xlink:href="#linear-gradient-51"/><linearGradient id="linear-gradient-53" x1="2458.92" y1="1652.11" x2="2443.94" y2="1676.77" gradientUnits="userSpaceOnUse"><stop offset="0" stop-color="#fff" stop-opacity="0"/><stop offset="1" stop-color="#bebfd2"/></linearGradient><linearGradient id="linear-gradient-54" x1="74.71" y1="232.57" x2="77.36" y2="235.65" gradientTransform="matrix(1, 0, 0, 1, 0, 0)" xlink:href="#linear-gradient-9"/><linearGradient id="linear-gradient-55" x1="2417.65" y1="1671.19" x2="2414.12" y2="1661.72" gradientTransform="matrix(1, 0, 0, 1, 0, 0)" xlink:href="#linear-gradient-2"/><linearGradient id="linear-gradient-56" x1="2434.24" y1="1626.7" x2="2431.82" y2="1620.09" gradientUnits="userSpaceOnUse"><stop offset="0" stop-color="#0c0d16"/><stop offset="1" stop-color="#cbc9da"/></linearGradient><linearGradient id="linear-gradient-57" x1="2421.54" y1="1603.7" x2="2427.48" y2="1606.78" gradientTransform="translate(780.22 -793.38) rotate(22.04)" xlink:href="#linear-gradient-9"/><linearGradient id="linear-gradient-58" x1="2428.48" y1="1607.46" x2="2426.99" y2="1605.31" gradientTransform="matrix(1, 0, 0, 1, 0, 0)" xlink:href="#linear-gradient-2"/><linearGradient id="linear-gradient-59" x1="2435.03" y1="1609.33" x2="2431.56" y2="1607.35" gradientTransform="matrix(1, 0, 0, 1, 0, 0)" xlink:href="#linear-gradient-10"/><linearGradient id="linear-gradient-60" x1="2400.12" y1="1674.55" x2="2393.18" y2="1658.37" gradientTransform="matrix(1, 0, 0, 1, 0, 0)" xlink:href="#linear-gradient-10"/><linearGradient id="linear-gradient-61" x1="1452.47" y1="1670.79" x2="1448.53" y2="1661.58" gradientTransform="matrix(-1, 0, 0, 1, 3803.59, 0)" xlink:href="#linear-gradient-10"/><linearGradient id="linear-gradient-62" x1="2355.24" y1="1662.46" x2="2362.73" y2="1662.9" gradientTransform="matrix(1, 0, 0, 1, 0, 0)" xlink:href="#linear-gradient-5"/><linearGradient id="linear-gradient-63" x1="2392.09" y1="1662.91" x2="2381.97" y2="1663.57" gradientTransform="matrix(1, 0, 0, 1, 0, 0)" xlink:href="#linear-gradient-5"/><linearGradient id="linear-gradient-64" x1="2401.02" y1="1667.57" x2="2399.04" y2="1681.61" gradientTransform="matrix(1, 0, 0, 1, 0, 0)" xlink:href="#linear-gradient-9"/><linearGradient id="linear-gradient-65" x1="2377.68" y1="1632.18" x2="2377.79" y2="1624.14" xlink:href="#linear-gradient-56"/><linearGradient id="linear-gradient-66" x1="2380.26" y1="1591.22" x2="2383.07" y2="1593.78" gradientTransform="matrix(1, 0, 0, 1, 0, 0)" xlink:href="#linear-gradient-2"/><linearGradient id="linear-gradient-67" x1="2481.94" y1="1533.4" x2="2498.12" y2="1544.08" gradientTransform="matrix(1, 0, 0, 1, 0, 0)" xlink:href="#linear-gradient"/><linearGradient id="linear-gradient-68" x1="2501.19" y1="1557.34" x2="2500.86" y2="1551.51" gradientTransform="matrix(1, 0, 0, 1, 0, 0)" xlink:href="#linear-gradient"/><linearGradient id="linear-gradient-69" x1="2494.2" y1="1545.98" x2="2490.4" y2="1543.01" gradientTransform="matrix(1, 0, 0, 1, 0, 0)" xlink:href="#linear-gradient-5"/><linearGradient id="linear-gradient-70" x1="2488.27" y1="1545.99" x2="2495.37" y2="1547.48" gradientTransform="matrix(1, 0, 0, 1, 0, 0)" xlink:href="#linear-gradient-2"/><linearGradient id="linear-gradient-71" x1="2473.99" y1="1552.23" x2="2473.21" y2="1544.34" gradientTransform="matrix(1, 0, 0, 1, 0, 0)" xlink:href="#linear-gradient"/><linearGradient id="linear-gradient-72" x1="2476.2" y1="1546.31" x2="2470.42" y2="1555.89" gradientTransform="matrix(1, 0, 0, 1, 0, 0)" xlink:href="#linear-gradient-2"/><linearGradient id="linear-gradient-73" x1="119.79" y1="114.96" x2="123.04" y2="115.5" gradientTransform="matrix(1, 0, 0, 1, 0, 0)" xlink:href="#linear-gradient-9"/><linearGradient id="linear-gradient-74" x1="2461.8" y1="1551.32" x2="2465.49" y2="1553.91" gradientTransform="matrix(1, 0, 0, 1, 0, 0)" xlink:href="#linear-gradient-10"/><linearGradient id="linear-gradient-75" x1="2527.54" y1="1542.03" x2="2529.68" y2="1545.58" gradientTransform="matrix(1, 0, 0, 1, 0, 0)" xlink:href="#linear-gradient"/><linearGradient id="linear-gradient-76" x1="2518.4" y1="1545.5" x2="2518.9" y2="1548.55" gradientTransform="matrix(1, 0, 0, 1, 0, 0)" xlink:href="#linear-gradient"/><linearGradient id="linear-gradient-77" x1="2493.98" y1="1529.3" x2="2500.91" y2="1533.67" gradientTransform="matrix(1, 0, 0, 1, 0, 0)" xlink:href="#linear-gradient"/><linearGradient id="linear-gradient-78" x1="2518" y1="1387.07" x2="2524.94" y2="1391.45" gradientTransform="matrix(0.98, 0.19, -0.19, 0.98, 289, -317.33)" xlink:href="#linear-gradient"/><linearGradient id="linear-gradient-79" x1="2529.24" y1="1528.38" x2="2534.61" y2="1538.95" gradientTransform="matrix(1, 0, 0, 1, 0, 0)" xlink:href="#linear-gradient"/><linearGradient id="linear-gradient-80" x1="2516.89" y1="1536.26" x2="2521.73" y2="1545.79" gradientTransform="matrix(1, 0, 0, 1, 0, 0)" xlink:href="#linear-gradient"/><linearGradient id="linear-gradient-81" x1="2526.09" y1="1528.15" x2="2530.63" y2="1533.68" gradientTransform="matrix(1, 0, 0, 1, 0, 0)" xlink:href="#linear-gradient"/><linearGradient id="linear-gradient-82" x1="2517.51" y1="1535.34" x2="2518.66" y2="1538.56" gradientTransform="matrix(1, 0, 0, 1, 0, 0)" xlink:href="#linear-gradient"/><linearGradient id="linear-gradient-83" x1="2527.91" y1="1576.63" x2="2547.07" y2="1586.37" gradientTransform="translate(433.71 396.95) scale(0.77 0.77)" xlink:href="#linear-gradient-10"/><linearGradient id="linear-gradient-84" x1="2447.25" y1="1527.87" x2="2451.21" y2="1512.24" gradientTransform="matrix(1, 0, 0, 1, 0, 0)" xlink:href="#linear-gradient-2"/></defs><path class="cls-1" d="M2360.32,1526.93s-4.13,4.3-5.86,4.38-7.68,1.24-8.92,6c0,0,2.23,5.2,6.36,3.88s8.5-1.16,12.38-9.91S2360.32,1526.93,2360.32,1526.93Z" transform="translate(-2337.24 -1432.45)"/><path class="cls-2" d="M2361.75,1535.76l-.58-1c-.16-.38-.27-1.54-1.48,0s-7.05,3.41-7.16,5a2.07,2.07,0,0,0,.38,1.16C2355.85,1540.11,2358.89,1539.6,2361.75,1535.76Z" transform="translate(-2337.24 -1432.45)"/><path class="cls-3" d="M2351.9,1541.22h0c-.86-1.46-2.52-3.31-2.77-4.81s2.86-3.77,4.94-5.06c-2.08.2-7.4,1.49-8.57,6C2345.54,1537.34,2347.77,1542.54,2351.9,1541.22Z" transform="translate(-2337.24 -1432.45)"/><path class="cls-4" d="M2348.6,1568.39s3.9,4.52,4.6,5.45,1.39,11.68.77,12.68-5.28,3.41-6.24,2.53-3.18.06-4.6-3.77-3.7-12.7,1.84-17S2348.6,1568.39,2348.6,1568.39Z" transform="translate(-2337.24 -1432.45)"/><path class="cls-5" d="M2354,1586.52c.62-1-.06-11.76-.77-12.68s-4.6-5.45-4.6-5.45.88-2-.29-2a3.54,3.54,0,0,1-.31,1.44s3.9,4.52,4.6,5.45,1.4,11.68.78,12.68-5.29,3.41-6.25,2.53c-.59-.55-1.68-.4-2.75-1.12,1.25,1.31,2.64,1,3.35,1.63C2348.69,1589.93,2353.36,1587.52,2354,1586.52Z" transform="translate(-2337.24 -1432.45)"/><path class="cls-6" d="M2345.16,1588.05a1.06,1.06,0,0,0,.29-.63c.33-2.44,1.24-.78,1-1.84s-.42-6.84-.46-8.14c0-.16,0-.26,0-.26l-4-4.32c-1.28,4.37.16,9.68,1.17,12.42A5,5,0,0,0,2345.16,1588.05Z" transform="translate(-2337.24 -1432.45)"/><path class="cls-7" d="M2348.39,1577.65c-.13-1.47,3.55-2.68,5.06-3.11a2.18,2.18,0,0,0-.25-.7c-.7-.93-4.6-5.45-4.6-5.45s1.91-4.35-3.63-.08c-2.72,2.09-3.54,5.29-3.52,8.45C2343.9,1578.84,2348.5,1579,2348.39,1577.65Z" transform="translate(-2337.24 -1432.45)"/><path class="cls-8" d="M2347,1567.21l-.56.08c-.41.27-.88.6-1.42,1l0,0c.4,2.23,1.57,8.4,2.2,8.35S2347,1567.21,2347,1567.21Z" transform="translate(-2337.24 -1432.45)"/><path class="cls-9" d="M2348.1,1564.05a4.85,4.85,0,0,1,1.93,5.77.91.91,0,0,1-1.06.61,12.25,12.25,0,0,0-3.85-.37,1,1,0,0,1-1.21-.91c-.15-1.66-.21-4.16.56-5.14C2345.67,1562.48,2348.1,1564.05,2348.1,1564.05Z" transform="translate(-2337.24 -1432.45)"/><path class="cls-9" d="M2348.07,1548.13s3.14,8,.83,11.78-3.63-5.18-3.63-5.18l-1.1-9.57Z" transform="translate(-2337.24 -1432.45)"/><path class="cls-10" d="M2346.26,1549.39c1.61,5.58,4.43,10.32,3.31,16.15,0,0-5.51-.84-5.68.64,0,0-4-3.47-3.3-8.53s1.32-8.92,1.32-8.92Z" transform="translate(-2337.24 -1432.45)"/><path class="cls-11" d="M2344,1563.2l.78-.44c.29-.12,1.08-.08.28-1.46s-1-7.36-2-7.67a1.14,1.14,0,0,0-.85.23C2342.23,1556.85,2342,1559.9,2344,1563.2Z" transform="translate(-2337.24 -1432.45)"/><circle class="cls-3" cx="7.28" cy="112.24" r="7.28"/><circle class="cls-12" cx="7.17" cy="111.76" r="3.87"/><path class="cls-13" d="M2337.24,1544.68a7.29,7.29,0,0,0,5,6.91c.62-.65,1.37-1.28,1.68-1.58.55-.55-.33-.83-.33-.83-3.49-.31-4.9-4.43-5.46-7.94A7.14,7.14,0,0,0,2337.24,1544.68Z" transform="translate(-2337.24 -1432.45)"/><path class="cls-14" d="M2344.72,1538.45s6.23,1.15,4.57,8l-.44-.28s1.71-5.67-4.18-7Z" transform="translate(-2337.24 -1432.45)"/><path class="cls-14" d="M2349,1547.2s1,.72.88,1.49-2.91,2.64-4.62,1.21C2345.22,1549.9,2348.58,1548.74,2349,1547.2Z" transform="translate(-2337.24 -1432.45)"/><path class="cls-15" d="M2342.91,1539.38s-2.48.22-3,1.6l.55.33S2341.92,1539.33,2342.91,1539.38Z" transform="translate(-2337.24 -1432.45)"/><path class="cls-16" d="M2349.85,1598.76s5.48,2.51,4.65,4.66a2.52,2.52,0,0,1-4.1,1c-.93-.93-2.66-3.21-2.59-3.86S2349.85,1598.76,2349.85,1598.76Z" transform="translate(-2337.24 -1432.45)"/><path class="cls-17" d="M2347,1590.37s3.25,1,3,6.73c0,0-4.61,1.93-5.1-2S2344.79,1590.93,2347,1590.37Z" transform="translate(-2337.24 -1432.45)"/><path class="cls-18" d="M2347.77,1595.35a1.62,1.62,0,0,1,1.77,1c.41,1.06.88,2.5.63,3.06-.42.93-2.54,1.95-3.15.84a9.84,9.84,0,0,1-.58-3.2,1.61,1.61,0,0,1,1.33-1.69Z" transform="translate(-2337.24 -1432.45)"/><path class="cls-19" d="M2347.41,1598.15a.89.89,0,0,1,1.17-1.35.9.9,0,0,1,.09,1.26A.89.89,0,0,1,2347.41,1598.15Zm.88-.42a.38.38,0,0,0,0-.55.39.39,0,0,0-.56,0,.4.4,0,0,0,0,.56A.39.39,0,0,0,2348.29,1597.73Z" transform="translate(-2337.24 -1432.45)"/><circle class="cls-19" cx="2348.41" cy="1598.97" r="0.29" transform="translate(-2093.39 2075.07) rotate(-76.45)"/><path class="cls-18" d="M2345.11,1587.33a1.88,1.88,0,0,1,3.39.72c.26,1.27.3,2.73-.67,3.27-1.87,1-3.38-.38-3.21-2.35A3.64,3.64,0,0,1,2345.11,1587.33Z" transform="translate(-2337.24 -1432.45)"/><path class="cls-19" d="M2345.74,1589.05a.89.89,0,1,1,1.24.24A.89.89,0,0,1,2345.74,1589.05Zm1-.17a.4.4,0,1,0-.55-.11A.39.39,0,0,0,2346.7,1588.88Z" transform="translate(-2337.24 -1432.45)"/><circle class="cls-19" cx="2345.32" cy="1589.9" r="0.29" transform="translate(-2518.53 1439.84) rotate(-61.04)"/><path class="cls-20" d="M2355.47,1575.21s3.65-.47,4.45,2.15-1.59,4.16-4,3S2355.47,1575.21,2355.47,1575.21Z" transform="translate(-2337.24 -1432.45)"/><path class="cls-9" d="M2353.22,1575s2.68-.84,2.73,1.39-1.63,3.58-2.34,3.17S2352.43,1575.59,2353.22,1575Z" transform="translate(-2337.24 -1432.45)"/><path class="cls-19" d="M2353.54,1576.83a.67.67,0,1,1,.94-.14A.67.67,0,0,1,2353.54,1576.83Zm.64-.36a.3.3,0,0,0-.07-.42.28.28,0,0,0-.41.07.29.29,0,0,0,.06.41A.3.3,0,0,0,2354.18,1576.47Z" transform="translate(-2337.24 -1432.45)"/><circle class="cls-19" cx="2354.33" cy="1577.39" r="0.22" transform="translate(-1888.94 2242.1) rotate(-81.56)"/><path class="cls-21" d="M2361.91,1579.32a3.43,3.43,0,0,1,3.82-2.06c1.23.21,2.49.8,2.2,2.38-.56,2.95-5.31,3.56-6.06,1.45A2.44,2.44,0,0,1,2361.91,1579.32Z" transform="translate(-2337.24 -1432.45)"/><path class="cls-9" d="M2362.6,1577.39a1.82,1.82,0,0,1,.29,1.83c-.48.88-.83,2.52-1.59,1.83s-3,0-2.44-.68c.64-.81.22-3.4,1-3.45A13.35,13.35,0,0,1,2362.6,1577.39Z" transform="translate(-2337.24 -1432.45)"/><path class="cls-19" d="M2360.56,1579.26a.89.89,0,1,1,1.06-1.44.91.91,0,0,1,.19,1.26A.89.89,0,0,1,2360.56,1579.26Zm.85-.48a.41.41,0,0,0-.08-.56.4.4,0,0,0-.56.09.4.4,0,0,0,.64.47Z" transform="translate(-2337.24 -1432.45)"/><circle class="cls-19" cx="2361.62" cy="1580" r="0.29" transform="translate(-1886.99 2250) rotate(-81.51)"/><path class="cls-22" d="M2355.71,1601.25s5.19,3.93,4.18,5.77a2.54,2.54,0,0,1-4.09.59c-1.1-1-2.84-3.3-2.77-4S2355.71,1601.25,2355.71,1601.25Z" transform="translate(-2337.24 -1432.45)"/><path class="cls-23" d="M2350.06,1590.62A4.2,4.2,0,0,1,2354,1594c.37,1.84.68,4,.22,4.65-.82,1.08-3.73,1.49-4.09-.52s-1.73-7.23-.61-7.49A2.47,2.47,0,0,1,2350.06,1590.62Z" transform="translate(-2337.24 -1432.45)"/><path class="cls-18" d="M2352.09,1597.77a1.76,1.76,0,0,1,2.2.55,7.08,7.08,0,0,1,1.53,3.08c.06,1.46-2.48,2.29-2.87,1.44s-1.91-3.36-1.47-4.42A1.29,1.29,0,0,1,2352.09,1597.77Z" transform="translate(-2337.24 -1432.45)"/><path class="cls-19" d="M2353,1600.94a1.07,1.07,0,1,1,1.32-.72A1.07,1.07,0,0,1,2353,1600.94Zm.75-.89a.47.47,0,0,0-.32-.59.47.47,0,0,0-.58.32.48.48,0,0,0,.32.59A.47.47,0,0,0,2353.73,1600.05Z" transform="translate(-2337.24 -1432.45)"/><circle class="cls-19" cx="17.23" cy="168.88" r="0.34"/><path class="cls-18" d="M2349,1587.41a1.89,1.89,0,0,1,2.53.93c.77,1.58,1.8,4.28,0,4.35-2.62.11-3.52-1.26-3.54-3.33A2,2,0,0,1,2349,1587.41Z" transform="translate(-2337.24 -1432.45)"/><path class="cls-19" d="M2349.44,1589.6a.92.92,0,0,1,.24-1.25.9.9,0,1,1-.24,1.25Zm1-.18a.4.4,0,1,0-.55-.1A.39.39,0,0,0,2350.41,1589.42Z" transform="translate(-2337.24 -1432.45)"/><path class="cls-24" d="M2358.39,1598.5a2.9,2.9,0,0,1,3,.26c1.24.93,2.71,2.43,2.27,4.1-.74,2.74-4.61.85-5,.17S2356.65,1599.3,2358.39,1598.5Z" transform="translate(-2337.24 -1432.45)"/><path class="cls-25" d="M2355.51,1589.43s2.9,2.6,2.31,6-4.53.28-4.89-2a20.72,20.72,0,0,1-.2-4.32Z" transform="translate(-2337.24 -1432.45)"/><path class="cls-18" d="M2356.19,1594.51a1.92,1.92,0,0,1,1.85.66c.84,1,2.23,2.79,2.33,3.58.13,1.15-2.92,1.45-3.26.94s-2.37-3.33-2.06-4.37A1.39,1.39,0,0,1,2356.19,1594.51Z" transform="translate(-2337.24 -1432.45)"/><path class="cls-19" d="M2357.57,1598.24a1.06,1.06,0,0,1-.33-2.1,1.06,1.06,0,1,1,.33,2.1Zm.3-1.12a.47.47,0,0,0-.53-.4.48.48,0,0,0-.4.54.47.47,0,0,0,.54.4A.47.47,0,0,0,2357.87,1597.12Z" transform="translate(-2337.24 -1432.45)"/><circle class="cls-19" cx="21.84" cy="165.52" r="0.34"/><path class="cls-18" d="M2353.85,1585.72s2.25,2.84,1.72,4.39-3.65,1.47-4.14-.3c-.09-.33-.18-.68-.25-1a2.52,2.52,0,0,1,2.45-3.06Z" transform="translate(-2337.24 -1432.45)"/><path class="cls-19" d="M2352.83,1588.69a.9.9,0,1,1,1.26-.1A.89.89,0,0,1,2352.83,1588.69Zm.88-.42a.4.4,0,0,0-.6-.52.4.4,0,1,0,.6.52Z" transform="translate(-2337.24 -1432.45)"/><circle class="cls-19" cx="2353.83" cy="1589.5" r="0.29" transform="translate(-2080.03 2073.09) rotate(-76.45)"/><path class="cls-26" d="M2443.2,1532.07s4.29,4.13,4.38,5.86,1.23,7.68,6,8.92c0,0,5.2-2.23,3.88-6.36s-1.15-8.5-9.9-12.38S2443.2,1532.07,2443.2,1532.07Z" transform="translate(-2337.24 -1432.45)"/><path class="cls-27" d="M2452,1530.64l-1,.58c-.39.16-1.55.27,0,1.48s3.41,7,5,7.16a2.08,2.08,0,0,0,1.17-.38C2456.38,1536.54,2455.86,1533.5,2452,1530.64Z" transform="translate(-2337.24 -1432.45)"/><path class="cls-3" d="M2457.48,1540.49v0c-1.46.86-3.3,2.52-4.8,2.77s-3.77-2.86-5.07-4.94c.21,2.08,1.5,7.4,6,8.57C2453.6,1546.85,2458.8,1544.62,2457.48,1540.49Z" transform="translate(-2337.24 -1432.45)"/><path class="cls-28" d="M2427.18,1586.21s-4.84,8.47,0,15.08,4.51-.88,4.51-.88l1.55-2.42s4.07-10.57-.44-16.08S2427.18,1586.21,2427.18,1586.21Z" transform="translate(-2337.24 -1432.45)"/><path class="cls-29" d="M2429.38,1601.18c-1,1.21-.11,1.87,1.84,2.2a7.19,7.19,0,0,0,.47-3l1.55-2.42s3.65-9.48.2-15.16l-1.53-.37S2433.46,1596.44,2429.38,1601.18Z" transform="translate(-2337.24 -1432.45)"/><path class="cls-30" d="M2430.81,1569.8s5.4,3.2,4.52,8-2.53,12.11-12.22,11,2.53-9,2.53-9Z" transform="translate(-2337.24 -1432.45)"/><path class="cls-30" d="M2383.75,1571.12s-6.88,6.06-3.58,13.21,13.76,6.61,13.76,6.61l-4-14.75Z" transform="translate(-2337.24 -1432.45)"/><path class="cls-31" d="M2397.37,1557s-13,9.17-13.62,14.12c0,0,4.05,2.81,3.88,6.69s5.12,13.63,7.43,15.28,13.71,5.36,21.88,1.24,11.56-8,12.06-8.92,4.95-10.82,2.23-16.6-11.81-10.15-11.81-10.15Z" transform="translate(-2337.24 -1432.45)"/><path class="cls-32" d="M2397.37,1557s-13,9.17-13.62,14.12c0,0,4.05,2.81,3.88,6.69s5.12,13.63,7.43,15.28,13.71,5.36,21.88,1.24,11.56-8,12.06-8.92,4.95-10.82,2.23-16.6-11.81-10.15-11.81-10.15Z" transform="translate(-2337.24 -1432.45)"/><path class="cls-33" d="M2394.82,1592.87c1.87,0,2.79-5.35.87-7.65-2.2-2.65-.55-10.46-.55-14.1s-3.85-4.18-4.4-3.63-4,4.63-4.85,5.69a7.06,7.06,0,0,1,1.74,4.63,6.45,6.45,0,0,0,.13,1.38c1,2.79,2.33,6.09,3.54,8.74A20.77,20.77,0,0,0,2394.82,1592.87Z" transform="translate(-2337.24 -1432.45)"/><path class="cls-34" d="M2408,1570.9s5.84-5.94,8.92-5.28,9.91,8.59,12.66,7.93c0,0,1.32,2.64-5.39,1.43s-8.26,2.31-8.26,2.31S2411.55,1573.77,2408,1570.9Z" transform="translate(-2337.24 -1432.45)"/><path class="cls-18" d="M2445.68,1510.24s9.57,7.38,3.85,17.51-18.5,6.82-18.5,6.82l5.4-14Z" transform="translate(-2337.24 -1432.45)"/><path class="cls-35" d="M2382.59,1492.46s3.47-3.19,5.51-2.31l.36.19a2.59,2.59,0,0,1,0,4.33c-2.1,1.41-5.45,3.94-5.45,5.72,0,2.59,42.27-1,42.27-1l-3.79-2.53-6.06-3.69a1.58,1.58,0,0,1-.93-2.42,11.67,11.67,0,0,0,1.21-3.8l-26.26-1.32-8,4.07Z" transform="translate(-2337.24 -1432.45)"/><path class="cls-31" d="M2383.25,1499.23l-.23,0c-1.75.35-12.88,2.69-15.62,6.34a28,28,0,0,0-3.63,5.72s4,0,4.29,5.18,6.72,15.19,9,16.29.11,5.18.11,5.18,9.82,6.41,16.15,7.94a4.07,4.07,0,0,0,4.1-1.36c2-2.39,5.94-6,8.84-7,4-1.38,5.12-1.73,7.68-1.15s4.87.08,6,.57,2.31,5.54,2.31,5.54,10-5.29,13.21-9.75,5.7-3.38,5.7-3.38,7.76-7.76,5-18.75-24.77-14.12-27.16-13.7Z" transform="translate(-2337.24 -1432.45)"/><path class="cls-36" d="M2383.25,1499.23l-.23,0c-1.75.35-12.88,2.69-15.62,6.34a28,28,0,0,0-3.63,5.72s4,0,4.29,5.18,6.72,15.19,9,16.29.11,5.18.11,5.18,9.82,6.41,16.15,7.94a4.07,4.07,0,0,0,4.1-1.36c2-2.39,5.94-6,8.84-7,4-1.38,5.12-1.73,7.68-1.15s4.87.08,6,.57,2.31,5.54,2.31,5.54,10-5.29,13.21-9.75,5.7-3.38,5.7-3.38,7.76-7.76,5-18.75-24.77-14.12-27.16-13.7Z" transform="translate(-2337.24 -1432.45)"/><path class="cls-37" d="M2446.25,1510.68c-2.72-11-24.77-14.12-27.16-13.7l-35.84,2.25-.23,0c-1.75.35-12.88,2.69-15.62,6.34a28,28,0,0,0-3.63,5.72s4,0,4.29,5.18a18.4,18.4,0,0,0,1.78,5.86c3.65-.29,10.58-.88,16.5-1.57,6.75-.79,38.48-3.54,60.38-3.39A19.3,19.3,0,0,0,2446.25,1510.68Z" transform="translate(-2337.24 -1432.45)"/><path class="cls-38" d="M2446.25,1510.68c-2.72-11-24.77-14.12-27.16-13.7l-35.84,2.25-.23,0c-1.75.35-12.88,2.69-15.62,6.34a28,28,0,0,0-3.63,5.72s4,0,4.29,5.18a18.4,18.4,0,0,0,1.78,5.86c3.65-.29,10.58-.88,16.5-1.57,6.75-.79,38.48-3.54,60.38-3.39A19.3,19.3,0,0,0,2446.25,1510.68Z" transform="translate(-2337.24 -1432.45)"/><path class="cls-39" d="M2391.46,1494.56l5.28-.45-.83,5.62-2.69-.77A11.57,11.57,0,0,0,2391.46,1494.56Z" transform="translate(-2337.24 -1432.45)"/><path class="cls-40" d="M2406.21,1498.68h9.69l-.1-5.26-.4-.24a2,2,0,0,1-1.13-1c-2.95,2.66-8.56,3.46-8.56,3.46C2407.09,1496.59,2406.21,1498.68,2406.21,1498.68Z" transform="translate(-2337.24 -1432.45)"/><path class="cls-41" d="M2372.14,1503.86c3,.7,7.45-2.75,9.18-4.21-3.71.84-11.66,3-13.92,6a28,28,0,0,0-3.63,5.72s4,0,4.29,5.18c.31,4.87,6,14,8.58,16-1.11-2.59-4.66-7.4-4.84-10.83-.22-4.4-2.53-9.8-5.17-11.23S2372.14,1503.86,2372.14,1503.86Z" transform="translate(-2337.24 -1432.45)"/><path class="cls-42" d="M2400.87,1510.24s11.23,3.75,15.41,6.94l25.32-1.1s1.32-5.84-2.31-7.6-8.37-2.42-10.46-3.74-19.7-1.32-28,5.06" transform="translate(-2337.24 -1432.45)"/><path class="cls-43" d="M2369.16,1511.89s7.93-5.94,9.36-5.83,2.53,2.31,1.54,5.83a20.68,20.68,0,0,0-.66,6.83s-5.06,2.42-6.93-1.1S2369.16,1511.89,2369.16,1511.89Z" transform="translate(-2337.24 -1432.45)"/><path class="cls-35" d="M2363.77,1511.34s-10.35,7.27-4.41,20.48c0,0,5.84,8.59,17.84,6.17,0,0,3.19-3.75-1.54-6.06-4.23-2.06-7.32-12.29-8.16-17.44a3.69,3.69,0,0,0-3.65-3.15Z" transform="translate(-2337.24 -1432.45)"/><path class="cls-44" d="M2359.8,1524.33s2,1.11,3.31.45,2-5.4,3.52-5.73-1-3.85-2.2-3.74S2359,1521.58,2359.8,1524.33Z" transform="translate(-2337.24 -1432.45)"/><path class="cls-30" d="M2398,1543.36a9.28,9.28,0,0,0-2.56,6.47c0,3,.49,6.8,2.58,8.66,3.72,3.3,8.43,7.51,12.8,7.43s6-1.81,7.19-.66,3.13,4.21,5.2,2.89-.83-7.26-1.9-9.33c0,0,4.29-12.3-.17-17.59l-1-4.45s-6.85-2.32-11.47.08-4.88-.58-7.27,2.56A49.65,49.65,0,0,1,2398,1543.36Z" transform="translate(-2337.24 -1432.45)"/><path class="cls-45" d="M2412.41,1536.54l.15-.26,4.24,1.51s4.3,10.63,1.95,12.48a17.46,17.46,0,0,1-5.07,2.66,55.06,55.06,0,0,0-1.84-9.38A8.63,8.63,0,0,1,2412.41,1536.54Z" transform="translate(-2337.24 -1432.45)"/><path class="cls-46" d="M2401.42,1544s3,3.1,4.33.6a2.24,2.24,0,0,0,.13-.27c1.24-3-1.41,5.12-.83,6l-4.87-2.31S2400.26,1544.62,2401.42,1544Z" transform="translate(-2337.24 -1432.45)"/><path class="cls-31" d="M2427.35,1475.52a1,1,0,0,1-.65-.24,1,1,0,0,1-.33-1c2.13-9-5.48-26.19-5.55-26.36a1,1,0,0,1,.91-1.41h.18c9.92,1.81,10.64,16.67,10.48,23-.1,4-4.47,5.85-4.66,5.93A1,1,0,0,1,2427.35,1475.52Z" transform="translate(-2337.24 -1432.45)"/><path class="cls-35" d="M2418.56,1482.23s-.23,2.14,4.44,1.15c.29-.06.4.06.5-.22l1.15-3.25-3.25-2.42-2.2.83Z" transform="translate(-2337.24 -1432.45)"/><path class="cls-31" d="M2369.05,1459.38s6.5-16.51,13.43-20.7c6.57-4,12.93-8.41,23.86-5a8.54,8.54,0,0,1,3.23,1.87c2.38,2.19,7.23,6.59,8,6.9,1.08.41,12.47,13.21,9.42,32.86,0,0-.91,6.19-3.55,8,0,0,.66-4-1.24-3.14s-7.38,12.6-14.26,12.44c-7-.16-14.31-4.59-18.36-4.59s-6.44,4.87-7.26,4.87-7.85-5.2-8.43-8S2368.31,1464.23,2369.05,1459.38Z" transform="translate(-2337.24 -1432.45)"/><path class="cls-47" d="M2407,1476.34a41.13,41.13,0,0,1-20.69-9.14l-16.13,2.1c1.35,6.53,3.36,13.83,3.71,15.54.58,2.81,7.6,8,8.43,8s3.22-4.87,7.26-4.87,11.31,4.43,18.36,4.59a8.34,8.34,0,0,0,5.26-2C2416.29,1485,2414.94,1477.38,2407,1476.34Z" transform="translate(-2337.24 -1432.45)"/><path class="cls-48" d="M2369.05,1459.38s6.5-16.51,13.43-20.7c6.57-4,12.93-8.41,23.86-5a8.54,8.54,0,0,1,3.23,1.87c2.38,2.19,7.23,6.59,8,6.9,1.08.41,12.47,13.21,9.42,32.86,0,0-.91,6.19-3.55,8,0,0,.66-4-1.24-3.14s-7.38,12.6-14.26,12.44c-7-.16-14.31-4.59-18.36-4.59s-6.44,4.87-7.26,4.87-7.85-5.2-8.43-8S2368.31,1464.23,2369.05,1459.38Z" transform="translate(-2337.24 -1432.45)"/><path class="cls-49" d="M2383.25,1439.34s-4.95,5.37-3.22,5.87,5.37-3,6.61,1.07-14.28,6.77-12.39,18.66c0,0-6-3,1.74-15.19C2376,1449.75,2379,1442.4,2383.25,1439.34Z" transform="translate(-2337.24 -1432.45)"/><path class="cls-50" d="M2406.34,1433.63a21.78,21.78,0,0,0-14.88.24h0a1.32,1.32,0,0,0,1.34,1.54c1.63,0,3.77.22,2.76,2-1.57,2.8,12.8.41,13.87,2.39s2.72-1.24,2.81-1.65a1.38,1.38,0,0,0-.1-.35c-1-.86-1.87-1.7-2.57-2.34A8.54,8.54,0,0,0,2406.34,1433.63Z" transform="translate(-2337.24 -1432.45)"/><path class="cls-51" d="M2399.85,1450.74a4.44,4.44,0,0,1,2.37-5.13c3-1.46,7.16-3.29,8.28-2.88,1.82.66.17,4.29,3.88,3.72s7.68.74,6,4.29-20.56,0-20.56,0Z" transform="translate(-2337.24 -1432.45)"/><path class="cls-52" d="M2378.22,1475.18a1.66,1.66,0,0,0,1.65,2.23c2.31.25,11.06-1.41,14-.66,2.33.6,10.65-.91,13.21-.41s6.2-.83,9.17-3.31a49.56,49.56,0,0,1,6.91-4.41,4.26,4.26,0,0,0,2.2-4.07l-.19-2.5-31.21,1.4Z" transform="translate(-2337.24 -1432.45)"/><path class="cls-35" d="M2375,1459.9a3.52,3.52,0,0,1,3-3.3c3-.66,15.61-5.78,22.13-6.77s18.74-2.81,20.06-1.49c1,1,4.93,8.71,5.86,13.85a4.68,4.68,0,0,1-2.59,5.1l-6.74,3.18s-9,4.78-12.71,5c-8.18.58-23.86.41-25.51.58S2375,1459.9,2375,1459.9Z" transform="translate(-2337.24 -1432.45)"/><path class="cls-53" d="M2421.73,1447.52s7.85,17.59,5.62,27c0,0,4-1.65,4-5S2431.72,1449.34,2421.73,1447.52Z" transform="translate(-2337.24 -1432.45)"/><path class="cls-54" d="M2431.39,1469.48a53.07,53.07,0,0,0-.15-5.74,4.15,4.15,0,0,1-3-1.39c-.6-.71-1.2-.06-1.52.42a41.29,41.29,0,0,1,.95,6.61c.69-.69,1.43-1.07,1.89-.26.61,1.06-.75,3.07-2.11,4.67,0,.25-.09.49-.14.73C2427.35,1474.52,2431.31,1472.87,2431.39,1469.48Z" transform="translate(-2337.24 -1432.45)"/><path class="cls-19" d="M2426.25,1451.84s-1.16,1.05-.17,3.08,1.71,6.77,2.53,6.77,2.2,1.6,1.87-.27S2428.17,1452.23,2426.25,1451.84Z" transform="translate(-2337.24 -1432.45)"/><path class="cls-55" d="M2401.44,1453.51a1.73,1.73,0,0,1,1-2.56c3.54-1,9.69-2.13,11.23-1.45,1.89.83,5.53,15.69,3.8,17.59s-9.16,5.36-9.16,5.36S2404.41,1458.39,2401.44,1453.51Z" transform="translate(-2337.24 -1432.45)"/><path class="cls-56" d="M2384.49,1456s-3,7.6-1.81,13.54l-5.37-1.48s-2.4-9.41.74-10.41S2384.49,1456,2384.49,1456Z" transform="translate(-2337.24 -1432.45)"/><path class="cls-31" d="M2374.1,1487.46c-4.48,0-5.43-2.2-5.6-3.51-.09-.74-.17-1.8-.26-3.13-.29-4.24-.77-11.33-2.73-15.86a5.53,5.53,0,0,1,.1-4.67,5,5,0,0,1,3.31-2.65l.15,0a1.34,1.34,0,0,1,.35,0,1.66,1.66,0,0,1,1.36.7c1.75,2.47,10.26,15.41,5.82,28.41a1,1,0,0,1-.79.66A10.92,10.92,0,0,1,2374.1,1487.46Z" transform="translate(-2337.24 -1432.45)"/><path class="cls-53" d="M2370,1458.85c1.6,2.25,10,14.92,5.69,27.5,0,0-5.73.88-6.17-2.53-.4-3.13-.43-13.19-3.07-19.26a4.29,4.29,0,0,1,2.74-6l.12,0A.69.69,0,0,1,2370,1458.85Z" transform="translate(-2337.24 -1432.45)"/><path class="cls-19" d="M2371.69,1464.69s1.82,8.84,3.22,8.18S2372.6,1465.19,2371.69,1464.69Z" transform="translate(-2337.24 -1432.45)"/><path class="cls-57" d="M2371.69,1482.53c-1.4-1.74,3.72-2.89,3.89-5.29s-3.64-3.3-5-3.38-.58-2.89-.58-2.89l-1.32-5.29-2.56-2.62a4.47,4.47,0,0,0,.34,1.5c2.64,6.07,2.67,16.13,3.07,19.26.33,2.53,3.57,2.7,5.21,2.62l1-.09A34.25,34.25,0,0,1,2371.69,1482.53Z" transform="translate(-2337.24 -1432.45)"/><path class="cls-19" d="M2368.06,1461.8a1.44,1.44,0,0,1,2.07,1c.57,1.74-.75,2.48-.17,4s.74,6.35.74,6.35S2368.23,1470.47,2368.06,1461.8Z" transform="translate(-2337.24 -1432.45)"/><path class="cls-58" d="M2384.25,1574.1s-4.79,4.7-3.31,6.85,2.81-.66,2.81-.66.74-3.55,1.73-3.55S2384.25,1574.1,2384.25,1574.1Z" transform="translate(-2337.24 -1432.45)"/><path class="cls-59" d="M2402.16,1567.9a2.45,2.45,0,0,0,3.63.56,4.35,4.35,0,0,0,1.62-3.35c0-3.33-1.36-5.84-2.3-6S2399.79,1564.21,2402.16,1567.9Z" transform="translate(-2337.24 -1432.45)"/><path class="cls-19" d="M2402.44,1567.53a2.37,2.37,0,0,0,.35.42c.54-1.38,1.29-4,.1-6C2401.94,1563.57,2401.29,1565.75,2402.44,1567.53Z" transform="translate(-2337.24 -1432.45)"/><path class="cls-60" d="M2403.93,1567.11a12.66,12.66,0,0,0-.7,1.15,2.19,2.19,0,0,0,2.46-.23,3.9,3.9,0,0,0,1.45-3c0-3-1.22-5.24-2.06-5.38-.3-.05-1.2.76-2,2C2404.8,1563.47,2403.93,1567.11,2403.93,1567.11Z" transform="translate(-2337.24 -1432.45)"/><path class="cls-61" d="M2407.14,1565a7.47,7.47,0,0,0-1.57-5.09c.74,3.39-1.11,7.22-1.11,7.22l0,1.37a2.14,2.14,0,0,0,1.27-.49A3.9,3.9,0,0,0,2407.14,1565Z" transform="translate(-2337.24 -1432.45)"/><path class="cls-19" d="M2404.58,1566.16c-.76-.69-1,1.64-1,2.26a2.16,2.16,0,0,0,1.44,0C2405,1567.52,2405,1566.54,2404.58,1566.16Z" transform="translate(-2337.24 -1432.45)"/><path class="cls-59" d="M2421.76,1567.78a2.18,2.18,0,0,0,3-1.21,3.89,3.89,0,0,0-.27-3.32c-1.48-2.58-3.69-3.89-4.48-3.59S2418.26,1566,2421.76,1567.78Z" transform="translate(-2337.24 -1432.45)"/><path class="cls-19" d="M2421.8,1567.37a2.8,2.8,0,0,0,.46.16c-.2-1.31-.81-3.67-2.63-4.67C2419.63,1564.54,2420.11,1566.51,2421.8,1567.37Z" transform="translate(-2337.24 -1432.45)"/><path class="cls-60" d="M2422.76,1566.37s0,.57,0,1.2a1.92,1.92,0,0,0,1.79-1.29,3.45,3.45,0,0,0-.23-3c-1.33-2.32-3.31-3.49-4-3.22a3.8,3.8,0,0,0-.64,2.4C2421.79,1563.17,2422.76,1566.37,2422.76,1566.37Z" transform="translate(-2337.24 -1432.45)"/><path class="cls-62" d="M2424.3,1563.31a6.58,6.58,0,0,0-3.52-3.21c2.11,2.27,2.41,6.06,2.41,6.06l.59,1.08a1.86,1.86,0,0,0,.75-1A3.45,3.45,0,0,0,2424.3,1563.31Z" transform="translate(-2337.24 -1432.45)"/><path class="cls-19" d="M2422.84,1565.34c-.9-.19,0,1.7.24,2.2a2,2,0,0,0,1.11-.66C2423.77,1566.21,2423.33,1565.45,2422.84,1565.34Z" transform="translate(-2337.24 -1432.45)"/><path class="cls-59" d="M2403.75,1536.22a2.47,2.47,0,0,0-3.54,1.13,4.35,4.35,0,0,0,0,3.77c1.47,3,3.86,4.69,4.78,4.42S2407.56,1538.51,2403.75,1536.22Z" transform="translate(-2337.24 -1432.45)"/><path class="cls-19" d="M2403.67,1536.68a2.25,2.25,0,0,0-.51-.22c.12,1.5.63,4.22,2.6,5.5C2405.9,1540.06,2405.51,1537.79,2403.67,1536.68Z" transform="translate(-2337.24 -1432.45)"/><path class="cls-60" d="M2402.5,1537.73a12.11,12.11,0,0,0,.12-1.36,2.23,2.23,0,0,0-2.13,1.32,3.93,3.93,0,0,0,0,3.39c1.32,2.72,3.47,4.21,4.29,4,.3-.09.75-1.23.92-2.67C2403.35,1541.43,2402.5,1537.73,2402.5,1537.73Z" transform="translate(-2337.24 -1432.45)"/><path class="cls-63" d="M2400.52,1541.08a7.54,7.54,0,0,0,3.72,3.91c-2.2-2.74-2.24-7-2.24-7l-.58-1.27a2.15,2.15,0,0,0-.93,1A3.93,3.93,0,0,0,2400.52,1541.08Z" transform="translate(-2337.24 -1432.45)"/><path class="cls-19" d="M2402.33,1538.89c1,.29.14-1.92-.1-2.5a2.15,2.15,0,0,0-1.3.66C2401.35,1537.84,2401.79,1538.73,2402.33,1538.89Z" transform="translate(-2337.24 -1432.45)"/><path class="cls-59" d="M2421.08,1535.1a2.19,2.19,0,0,1,3.13,1,3.91,3.91,0,0,1,0,3.33c-1.3,2.68-3.41,4.14-4.22,3.89S2417.72,1537.12,2421.08,1535.1Z" transform="translate(-2337.24 -1432.45)"/><path class="cls-19" d="M2421.16,1535.51a1.93,1.93,0,0,1,.44-.2c-.11,1.32-.55,3.73-2.29,4.85C2419.19,1538.48,2419.53,1536.48,2421.16,1535.51Z" transform="translate(-2337.24 -1432.45)"/><path class="cls-60" d="M2422.19,1536.43a10.56,10.56,0,0,1-.11-1.19,1.93,1.93,0,0,1,1.88,1.16,3.48,3.48,0,0,1,0,3c-1.16,2.4-3,3.71-3.78,3.5-.27-.08-.66-1.09-.81-2.35C2421.44,1539.7,2422.19,1536.43,2422.19,1536.43Z" transform="translate(-2337.24 -1432.45)"/><path class="cls-64" d="M2423.93,1539.38a6.62,6.62,0,0,1-3.28,3.45c1.94-2.42,2-6.21,2-6.21l.52-1.12a1.9,1.9,0,0,1,.82.9A3.48,3.48,0,0,1,2423.93,1539.38Z" transform="translate(-2337.24 -1432.45)"/><path class="cls-19" d="M2422.33,1537.45c-.88.26-.12-1.69.09-2.2a2,2,0,0,1,1.15.58C2423.2,1536.53,2422.82,1537.32,2422.33,1537.45Z" transform="translate(-2337.24 -1432.45)"/><path class="cls-65" d="M2420.14,1627.71s-3.8,25.84-3.85,29.07c-.05,2.64,2,25.1,2,25.1a45.46,45.46,0,0,0,10.68,2.86c6.82,1.1,16.84,3.41,24.11,2.31a59,59,0,0,0,14.09-4.29s3.08-5.29-.33-9-13.76-14.2-14.2-23.67-4.41-20.81-6.06-23.34-23.12-4.51-26.64,1.32" transform="translate(-2337.24 -1432.45)"/><path class="cls-66" d="M2420.14,1627.71s-3.8,25.84-3.85,29.07c-.05,2.64,2,25.1,2,25.1a45.46,45.46,0,0,0,10.68,2.86c6.82,1.1,16.84,3.41,24.11,2.31a59,59,0,0,0,14.09-4.29s3.08-5.29-.33-9-13.76-14.2-14.2-23.67-4.41-20.81-6.06-23.34-23.12-4.51-26.64,1.32" transform="translate(-2337.24 -1432.45)"/><path class="cls-67" d="M2419.92,1628a2,2,0,0,1,.22-.29v0Z" transform="translate(-2337.24 -1432.45)"/><path class="cls-68" d="M2446.34,1682.65c-16.73-6.17-9.13-46.24-9.57-52.19-.28-3.71-7.77-4.67-13.35-4.87a6.91,6.91,0,0,0-3.28,2.16c-.14.77-3.76,26.42-3.85,29-.28,8.09,2,25.1,2,25.1a45.46,45.46,0,0,0,10.68,2.86c3.51.56,7.86,1.45,12.25,2C2448.32,1685.93,2451.75,1684.64,2446.34,1682.65Z" transform="translate(-2337.24 -1432.45)"/><path class="cls-69" d="M2428.73,1631s-.44,27.64.11,28.52,9.8,18.27,5.94,19.59-7.37-19.81-7.37-19.81Z" transform="translate(-2337.24 -1432.45)"/><path class="cls-70" d="M2438.09,1661.18s1.43-3,1.21-4.74,5.83,1.11,7.7.89-3.3,4.07,1.32,6.82,11.56,14.64,13.11,14.86-10.46,2.54-12,1a1.58,1.58,0,0,1,.33-2.64Z" transform="translate(-2337.24 -1432.45)"/><path class="cls-71" d="M2452.62,1650.06a67.94,67.94,0,0,0-5.61-22.55,13.93,13.93,0,0,0,.54,11.65c3.64,7.71,1.77,16.73,3.42,17.5s14.2,16.3,14.75,18.83-12.88,7.93-27.52,2.86c-9.88-3.41-16.45.64-19.68,3.63a47.13,47.13,0,0,0,10.43,2.76c6.82,1.1,16.84,3.41,24.11,2.31a59,59,0,0,0,14.09-4.29s3.08-5.29-.33-9S2453.06,1659.53,2452.62,1650.06Z" transform="translate(-2337.24 -1432.45)"/><path class="cls-72" d="M2427.07,1624.85s-9.14.44-7.38,1.76,12.67,4.62,17,3.74,11.23-1,10.57-2.75S2434.78,1623.75,2427.07,1624.85Z" transform="translate(-2337.24 -1432.45)"/><ellipse class="cls-73" cx="80.7" cy="235.63" rx="10.48" ry="14.59"/><ellipse class="cls-74" cx="77.81" cy="236.18" rx="7.09" ry="10.87"/><path class="cls-75" d="M2415.05,1657.76a5.14,5.14,0,0,0-.87.09c3.51.66,6.23,5.23,6.23,10.78s-2.72,10.12-6.23,10.78a5.14,5.14,0,0,0,.87.09c3.92,0,7.09-4.87,7.09-10.87S2419,1657.76,2415.05,1657.76Z" transform="translate(-2337.24 -1432.45)"/><path class="cls-76" d="M2424.29,1660.3s-1.65,3.71,1.16,6.19S2426.6,1662.94,2424.29,1660.3Z" transform="translate(-2337.24 -1432.45)"/><path class="cls-77" d="M2429.05,1626.72s-5.17.88-4,1.43,1.1,1.32,6.16,1.43,11-.44,10.57-1.65S2433.46,1626.72,2429.05,1626.72Z" transform="translate(-2337.24 -1432.45)"/><path class="cls-78" d="M2427.59,1612.61s-3.13,14.34,4.13,16.08,3.72-6.49,3.72-6.49,1.07-9.87-2.15-12S2427.59,1612.61,2427.59,1612.61Z" transform="translate(-2337.24 -1432.45)"/><path class="cls-79" d="M2433.29,1610.23a3.37,3.37,0,0,0-1.33-.52c-1.25.83-2.1,1.76-2,2.72.49,3.74,2.19,10.24,6,11.41a12.41,12.41,0,0,0-.54-1.64S2436.51,1612.33,2433.29,1610.23Z" transform="translate(-2337.24 -1432.45)"/><ellipse class="cls-80" cx="2429.83" cy="1605.69" rx="7.1" ry="6.93" transform="translate(-1854.82 2338.87) rotate(-81.49)"/><ellipse class="cls-81" cx="2427.23" cy="1606.65" rx="3" ry="4.32" transform="translate(-2762.75 -404.28) rotate(-22.04)"/><path class="cls-82" d="M2429.52,1605.72c-.8-2-2.57-3.14-3.95-2.58a1.59,1.59,0,0,0-.22.13c1.31-.24,2.84.86,3.58,2.67s.37,3.78-.82,4.47a1.54,1.54,0,0,0,.37-.09C2429.86,1609.76,2430.32,1607.7,2429.52,1605.72Z" transform="translate(-2337.24 -1432.45)"/><path class="cls-19" d="M2433.18,1600.85s-1.93.05-1.21,1,1.65,3.14,2.64,3S2435.22,1601.51,2433.18,1600.85Z" transform="translate(-2337.24 -1432.45)"/><path class="cls-83" d="M2436.68,1606.72a7.11,7.11,0,0,0,0-2.16,7.85,7.85,0,0,1-5.15,1.24l-.61,6.89A7.07,7.07,0,0,0,2436.68,1606.72Z" transform="translate(-2337.24 -1432.45)"/><path class="cls-84" d="M2391.18,1656.91s5-3.47,7.18,1.65,7.85,23-1.48,27.66S2391.18,1656.91,2391.18,1656.91Z" transform="translate(-2337.24 -1432.45)"/><path class="cls-84" d="M2358.81,1655.76s-7,.57-8.34,8.75-.9,18.82,2.89,19.57S2358.81,1655.76,2358.81,1655.76Z" transform="translate(-2337.24 -1432.45)"/><path class="cls-85" d="M2396.47,1659.89c-1.28-1.17-4-2.07-2.32,2.72s2.15,13,3.55,10.32S2397.46,1660.79,2396.47,1659.89Z" transform="translate(-2337.24 -1432.45)"/><path class="cls-86" d="M2353.2,1662.44c.73-.66,2.26-1.17,1.32,1.55s-1.22,7.38-2,5.87S2352.64,1663,2353.2,1662.44Z" transform="translate(-2337.24 -1432.45)"/><path class="cls-87" d="M2362.45,1632.89s-1.87,4.84-1.87,8-1.88,16.52-2.87,19-4.95,23.67-4.62,25.76-2.31,8.15,9.47,9.36,27.63-1.21,27.63-1.21,6.72-3.09,7-7.6-.22-8.26-2.87-14-1.87-17.29-1.87-19.82-1.87-19.48-4.51-20.26S2362.45,1632.89,2362.45,1632.89Z" transform="translate(-2337.24 -1432.45)"/><path class="cls-88" d="M2362.45,1632.89s-1.87,4.84-1.87,8-1.88,16.52-2.87,19-4.95,23.67-4.62,25.76-2.31,8.15,9.47,9.36,27.63-1.21,27.63-1.21,6.72-3.09,7-7.6-.22-8.26-2.87-14-1.87-17.29-1.87-19.82-1.87-19.48-4.51-20.26S2362.45,1632.89,2362.45,1632.89Z" transform="translate(-2337.24 -1432.45)"/><path class="cls-89" d="M2390.19,1693.88s6.72-3.09,7-7.6-.22-8.26-2.87-14-1.87-17.29-1.87-19.82-1.87-19.48-4.51-20.26a11.7,11.7,0,0,0-2.28-.2l-19.3,2.85s-4.29,29.72-1.87,31,16.51,2.31,18.38-.66-2.42-6.16,2-3.52,4.73,5.94,4.51,15.41,4.45,9.69-1.43,11.12c-14.53,3.52-32.92-2.42-32.46,4.77,1.41,1,3.61,1.71,7,2.06C2374.34,1696.3,2390.19,1693.88,2390.19,1693.88Z" transform="translate(-2337.24 -1432.45)"/><path class="cls-90" d="M2390.19,1693.88s6.72-3.09,7-7.6-.22-8.26-2.87-14-1.87-17.29-1.87-19.82-1.87-19.48-4.51-20.26a11.7,11.7,0,0,0-2.28-.2l-19.3,2.85s-4.29,29.72-1.87,31,16.51,2.31,18.38-.66-2.42-6.16,2-3.52,4.73,5.94,4.51,15.41,4.45,9.69-1.43,11.12c-14.53,3.52-32.92-2.42-32.46,4.77,1.41,1,3.61,1.71,7,2.06C2374.34,1696.3,2390.19,1693.88,2390.19,1693.88Z" transform="translate(-2337.24 -1432.45)"/><path class="cls-91" d="M2363.55,1675.06a7.85,7.85,0,0,1,7.83-7.65c6.17,0,14.34.69,13.86,4.56-.77,6.16,1.54,12.44-3.31,14.2s-18.16-.77-18.16-.77S2363.43,1680,2363.55,1675.06Z" transform="translate(-2337.24 -1432.45)"/><path class="cls-92" d="M2399.51,1661.65a15.59,15.59,0,0,0,.34,4.76c.94,4.55,1.06,11.51,1,15.5C2403.42,1676.1,2401.31,1667.05,2399.51,1661.65Z" transform="translate(-2337.24 -1432.45)"/><path class="cls-72" d="M2370.79,1630.16s-10.41.33-9,4,5.36.57,8.83,1.15,12.88,1.57,15.11.17,4.05-2.23,2.89-3.22-3.55-2.15-11.15-2.73S2370.79,1630.16,2370.79,1630.16Z" transform="translate(-2337.24 -1432.45)"/><path class="cls-93" d="M2383.17,1632.8c-3.22-2.47-9.41-1.9-9.41-1.9s-6-.33-6.19,2.07a4.82,4.82,0,0,0,.74,2.44,7.48,7.48,0,0,1,2.31-.05,73,73,0,0,0,9.7.88C2382.79,1635.08,2384.47,1633.8,2383.17,1632.8Z" transform="translate(-2337.24 -1432.45)"/><path class="cls-94" d="M2377.8,1615.46a12,12,0,0,0-4,8.67c-.17,5.62-2.31,8.26-.41,8.76a17.29,17.29,0,0,0,5.86.16c2.15-.16,1.73-2.39,2.23-4.62s3-9.91.33-12.22S2377.8,1615.46,2377.8,1615.46Z" transform="translate(-2337.24 -1432.45)"/><path class="cls-93" d="M2378.14,1613.15s-4.3,10.4-1.24,13.13,4.21-6,4.21-6,.08-3.79,1.73-4.62-1.9-3-1.9-3Z" transform="translate(-2337.24 -1432.45)"/><path class="cls-28" d="M2382.35,1587.47a16.44,16.44,0,0,0-3.64,11.64c.5,7.19,1.24,4.79,1.24,4.79l4.63-.24s3.22-9,2.06-14.62S2382.35,1587.47,2382.35,1587.47Z" transform="translate(-2337.24 -1432.45)"/><path class="cls-95" d="M2383.18,1590.44a5.62,5.62,0,0,0-.09-3.71h0a4.79,4.79,0,0,0-.74.74,16.32,16.32,0,0,0-3.64,9.4C2380.78,1596.89,2382.38,1592.93,2383.18,1590.44Z" transform="translate(-2337.24 -1432.45)"/><path class="cls-96" d="M2486.47,1542.67s6.55-4.08,7.87-4.79,15.19.55,16.35,1.54,3.3,7.43,2,8.47-.55,4.08-5.73,5.12-17,2.21-21.3-5.72S2486.47,1542.67,2486.47,1542.67Z" transform="translate(-2337.24 -1432.45)"/><path class="cls-5" d="M2510.69,1539.42c-1.16-1-15-2.26-16.35-1.54s-7.87,4.79-7.87,4.79-2.38-1.52-2.56,0a4.47,4.47,0,0,1,1.78.68s6.55-4.08,7.88-4.79,15.19.55,16.34,1.54,3.31,7.43,2,8.48c-.83.65-.84,2.06-2,3.29,1.93-1.33,1.77-3.18,2.75-4C2514,1546.85,2511.84,1540.41,2510.69,1539.42Z" transform="translate(-2337.24 -1432.45)"/><path class="cls-97" d="M2510.88,1551a1.43,1.43,0,0,0-.75-.49c-3.05-.91-.74-1.73-2.14-1.65-1.25.07-8.82-.83-10.49-1l-.33,0-6.33,4.28c5.33,2.51,12.4,1.72,16.1,1A6.34,6.34,0,0,0,2510.88,1551Z" transform="translate(-2337.24 -1432.45)"/><path class="cls-98" d="M2498.24,1544.78c-1.9-.13-2.71-5.07-3-7.08a2.71,2.71,0,0,0-.94.18c-1.32.71-7.87,4.79-7.87,4.79s-5.18-3.31-.83,4.62c2.13,3.88,6,5.58,10.09,6.18C2498.87,1550.75,2500,1544.91,2498.24,1544.78Z" transform="translate(-2337.24 -1432.45)"/><path class="cls-99" d="M2484.62,1544.54v.72c.26.58.59,1.25,1,2l0,0c2.93-.06,11-.32,11.1-1.13C2496.84,1545.2,2484.62,1544.54,2484.62,1544.54Z" transform="translate(-2337.24 -1432.45)"/><path class="cls-9" d="M2480.31,1544.29a4.86,4.86,0,0,1,5.77-1.93.9.9,0,0,1,.61,1.06,12.55,12.55,0,0,0-.37,3.85,1,1,0,0,1-.9,1.21c-1.66.15-4.16.21-5.15-.56C2478.74,1546.72,2480.31,1544.29,2480.31,1544.29Z" transform="translate(-2337.24 -1432.45)"/><path class="cls-9" d="M2464.39,1544.32s8-3.14,11.78-.83-5.17,3.63-5.17,3.63l-9.58,1.1Z" transform="translate(-2337.24 -1432.45)"/><path class="cls-100" d="M2465.66,1546.13c5.58-1.61,10.32-4.43,16.14-3.31,0,0-.84,5.51.65,5.68,0,0-3.47,4-8.54,3.3s-8.91-1.32-8.91-1.32Z" transform="translate(-2337.24 -1432.45)"/><path class="cls-101" d="M2479.46,1548.36l-.44-.78c-.11-.29-.07-1.08-1.46-.28s-7.35,1-7.66,2a1.1,1.1,0,0,0,.23.85C2473.12,1550.16,2476.16,1550.39,2479.46,1548.36Z" transform="translate(-2337.24 -1432.45)"/><circle class="cls-3" cx="123.71" cy="115.42" r="7.28"/><circle class="cls-102" cx="123.23" cy="115.53" r="3.87"/><path class="cls-103" d="M2461,1555.15a7.28,7.28,0,0,0,6.9-5c-.65-.62-1.27-1.37-1.58-1.68-.55-.55-.82.33-.82.33-.31,3.49-4.43,4.9-7.95,5.46A7.18,7.18,0,0,0,2461,1555.15Z" transform="translate(-2337.24 -1432.45)"/><path class="cls-14" d="M2454.71,1547.67s1.16-6.22,8-4.57l-.28.44s-5.67-1.71-7,4.18Z" transform="translate(-2337.24 -1432.45)"/><path class="cls-14" d="M2463.47,1543.43s.71-1,1.48-.88,2.64,2.91,1.21,4.62C2466.16,1547.17,2465,1543.81,2463.47,1543.43Z" transform="translate(-2337.24 -1432.45)"/><path class="cls-15" d="M2455.65,1549.48s.22,2.48,1.6,3l.33-.55S2455.59,1550.47,2455.65,1549.48Z" transform="translate(-2337.24 -1432.45)"/><path class="cls-104" d="M2525.49,1547.12s4.3-6.49,6.88-5a3.27,3.27,0,0,1,.5,5.45c-1.38,1-4.63,2.76-5.45,2.54S2525.49,1547.12,2525.49,1547.12Z" transform="translate(-2337.24 -1432.45)"/><path class="cls-105" d="M2514.21,1549.11s1.87-4,9.19-2.48c0,0,1.54,6.27-3.58,6.11S2514.48,1552,2514.21,1549.11Z" transform="translate(-2337.24 -1432.45)"/><path class="cls-18" d="M2520.73,1549.1a2.07,2.07,0,0,1,1.62-2.06c1.42-.31,3.36-.62,4-.19,1.1.71,2,3.63.44,4.18a12.87,12.87,0,0,1-4.19.11,2.09,2.09,0,0,1-1.89-2Z" transform="translate(-2337.24 -1432.45)"/><path class="cls-19" d="M2524.23,1550.12a1.16,1.16,0,1,1,.14-1.63A1.17,1.17,0,0,1,2524.23,1550.12Zm-.36-1.21a.51.51,0,0,0-.72-.06.51.51,0,1,0,.67.78A.51.51,0,0,0,2523.87,1548.91Z" transform="translate(-2337.24 -1432.45)"/><circle class="cls-19" cx="2525.47" cy="1549.01" r="0.37" transform="translate(-2207.06 1860.12) rotate(-67.57)"/><path class="cls-18" d="M2510,1550.9a2.43,2.43,0,0,1,1.58-4.19c1.68-.08,3.55.16,4,1.51.94,2.59-1.15,4.24-3.63,3.64A4.81,4.81,0,0,1,2510,1550.9Z" transform="translate(-2337.24 -1432.45)"/><path class="cls-19" d="M2512.28,1550.44a1.16,1.16,0,1,1,.55-1.54A1.15,1.15,0,0,1,2512.28,1550.44Zm0-1.26a.51.51,0,0,0-.93.43.51.51,0,1,0,.93-.43Z" transform="translate(-2337.24 -1432.45)"/><circle class="cls-19" cx="2513.27" cy="1551.14" r="0.37" transform="translate(-2590.43 1152.74) rotate(-52.18)"/><path class="cls-106" d="M2496.54,1535.25s.12-4.75,3.63-5.25,5,2.85,3,5.7S2496.54,1535.25,2496.54,1535.25Z" transform="translate(-2337.24 -1432.45)"/><path class="cls-9" d="M2495.88,1538.1s-.54-3.6,2.31-3.22,4.25,2.8,3.59,3.63S2496.41,1539.21,2495.88,1538.1Z" transform="translate(-2337.24 -1432.45)"/><path class="cls-19" d="M2498.23,1538.05a.88.88,0,0,1-1.23,0,.86.86,0,0,1,0-1.23.87.87,0,0,1,1.23,0A.88.88,0,0,1,2498.23,1538.05Zm-.34-.89a.38.38,0,0,0-.54,0,.39.39,0,1,0,.54.55A.38.38,0,0,0,2497.89,1537.16Z" transform="translate(-2337.24 -1432.45)"/><circle class="cls-19" cx="2499.09" cy="1537.14" r="0.28" transform="translate(-2049.88 2032.52) rotate(-72.67)"/><path class="cls-107" d="M2503.07,1527.85a4.43,4.43,0,0,1-1.86-5.29c.51-1.53,1.52-3,3.47-2.33,3.67,1.29,3.49,7.48.65,8A3.26,3.26,0,0,1,2503.07,1527.85Z" transform="translate(-2337.24 -1432.45)"/><path class="cls-9" d="M2500.75,1526.58a2.34,2.34,0,0,1,2.39,0c1,.78,3.06,1.57,2,2.39s-.65,3.76-1.37,3c-.91-1-4.29-1-4.21-2A18,18,0,0,1,2500.75,1526.58Z" transform="translate(-2337.24 -1432.45)"/><path class="cls-19" d="M2502.73,1529.56a1.15,1.15,0,1,1,0-1.63A1.14,1.14,0,0,1,2502.73,1529.56Zm-.45-1.18a.51.51,0,0,0-.72,0,.51.51,0,1,0,.72.72A.51.51,0,0,0,2502.28,1528.38Z" transform="translate(-2337.24 -1432.45)"/><circle class="cls-19" cx="2503.88" cy="1528.36" r="0.37" transform="translate(-2039.67 2029.17) rotate(-72.63)"/><path class="cls-108" d="M2529.84,1540.13s6.06-5.83,8.2-4.18a3.29,3.29,0,0,1-.05,5.34c-1.49,1.21-4.79,3-5.62,2.75S2529.84,1540.13,2529.84,1540.13Z" transform="translate(-2337.24 -1432.45)"/><path class="cls-109" d="M2515.15,1545.23a5.41,5.41,0,0,1,5.12-4.31c2.42-.1,5.32-.06,6,.64,1.21,1.27,1.16,5.07-1.48,5.12s-9.58.77-9.69-.71A2.86,2.86,0,0,1,2515.15,1545.23Z" transform="translate(-2337.24 -1432.45)"/><path class="cls-18" d="M2524.68,1544.06a2.26,2.26,0,0,1,1.13-2.69c1.22-.64,3.07-1.49,4.25-1.35,1.87.22,2.42,3.64,1.27,4s-4.68,1.76-5.95,1A1.67,1.67,0,0,1,2524.68,1544.06Z" transform="translate(-2337.24 -1432.45)"/><path class="cls-19" d="M2528.9,1543.56a1.38,1.38,0,1,1-.66-1.83A1.37,1.37,0,0,1,2528.9,1543.56Zm-1-1.14a.61.61,0,1,0,.3.81A.62.62,0,0,0,2527.91,1542.42Z" transform="translate(-2337.24 -1432.45)"/><circle class="cls-19" cx="192.46" cy="109.3" r="0.44"/><path class="cls-18" d="M2510.82,1546a2.44,2.44,0,0,1,1.69-3c2.17-.67,5.82-1.45,5.55.92-.38,3.35-2.31,4.23-4.95,3.85A2.6,2.6,0,0,1,2510.82,1546Z" transform="translate(-2337.24 -1432.45)"/><path class="cls-19" d="M2513.71,1545.82a1.16,1.16,0,1,1,.55-1.54A1.15,1.15,0,0,1,2513.71,1545.82Zm0-1.27a.51.51,0,0,0-.93.44.53.53,0,0,0,.69.24A.51.51,0,0,0,2513.68,1544.55Z" transform="translate(-2337.24 -1432.45)"/><path class="cls-110" d="M2526.87,1536.17a3.76,3.76,0,0,1,.92-3.76c1.43-1.39,3.65-3,5.68-2.08,3.36,1.49.17,6.06-.77,6.39S2527.54,1538.55,2526.87,1536.17Z" transform="translate(-2337.24 -1432.45)"/><path class="cls-111" d="M2514.7,1538s3.91-3.19,8.1-1.76-.56,5.83-3.58,5.83a26.92,26.92,0,0,1-5.56-.6Z" transform="translate(-2337.24 -1432.45)"/><path class="cls-18" d="M2521.34,1538.18a2.46,2.46,0,0,1,1.2-2.23c1.46-.87,4-2.3,5-2.26,1.49.06,1.27,4,.55,4.35s-4.73,2.37-6,1.76A1.76,1.76,0,0,1,2521.34,1538.18Z" transform="translate(-2337.24 -1432.45)"/><path class="cls-19" d="M2526.37,1537.16a1.38,1.38,0,1,1-1.37-1.38A1.37,1.37,0,0,1,2526.37,1537.16Zm-1.37-.61a.61.61,0,1,0,0,1.22.61.61,0,1,0,0-1.22Z" transform="translate(-2337.24 -1432.45)"/><circle class="cls-19" cx="189.08" cy="102.73" r="0.44"/><path class="cls-18" d="M2509.64,1539.42s4.07-2.31,5.94-1.32,1.16,5-1.21,5.23c-.43.05-.89.08-1.35.11a3.26,3.26,0,0,1-3.42-3.74Z" transform="translate(-2337.24 -1432.45)"/><path class="cls-19" d="M2513.22,1541.31a1.15,1.15,0,1,1-1.49-1.76,1.15,1.15,0,1,1,1.49,1.76Zm-.35-1.21a.51.51,0,0,0-.79.66.51.51,0,0,0,.73.06A.52.52,0,0,0,2512.87,1540.1Z" transform="translate(-2337.24 -1432.45)"/><circle class="cls-19" cx="2514.46" cy="1540.2" r="0.37" transform="matrix(0.38, -0.92, 0.92, 0.38, -2205.73, 1844.49)"/><rect class="cls-93" x="2376.01" y="1600.51" width="8.77" height="16.87" rx="4.39" transform="translate(-2110.79 -1724.95) rotate(7.38)"/><rect class="cls-112" x="2377.48" y="1603.93" width="3.2" height="10.54" rx="1.6" transform="matrix(0.99, 0.13, -0.13, 0.99, -2110.76, -1724.78)"/><rect class="cls-19" x="2382.48" y="1604.48" width="0.94" height="2.78" transform="translate(-2111.16 -1725.31) rotate(7.38)"/><rect class="cls-19" x="2381.95" y="1609.38" width="0.94" height="1.17" transform="translate(-2110.64 -1725.21) rotate(7.38)"/><path class="cls-113" d="M2448.65,1516.19s4.18,6.6-1.21,10.79h0a1.5,1.5,0,0,1,.25-2.12C2448.73,1524.05,2449.72,1521.88,2448.65,1516.19Z" transform="translate(-2337.24 -1432.45)"/></svg>